<svg width="87" height="90" viewBox="0 0 87 90" fill="none" xmlns="http://www.w3.org/2000/svg">
<g filter="url(#filter0_d_348_3552)">
<path fill-rule="evenodd" clip-rule="evenodd" d="M43.403 60.6859C50.3858 60.2765 57.0343 56.4742 60.7932 49.9635C66.7334 39.6748 63.2082 26.5187 52.9195 20.5785C45.0769 16.0506 35.5683 17.0223 28.8594 22.297C29.832 17.8411 31.606 14.842 35.9066 9.66004C42.9467 8.1668 50.542 9.1698 57.2652 13.0515C71.711 21.3917 76.6605 39.8635 68.3202 54.3093C61.1512 66.7263 46.4967 72.127 33.3477 68.1024C33.4038 68.0982 33.4607 68.0934 33.5186 68.0882C35.8797 66.1651 40.785 62.5147 42.23 61.5089C42.6426 61.2217 43.0311 60.9513 43.403 60.6859Z" fill="url(#paint0_linear_348_3552)"/>
</g>
<g filter="url(#filter1_d_348_3552)">
<path d="M25.7223 14.1453C29.0643 11.5893 31.2284 10.503 35.957 9.60156C31.2399 15.2781 29.5433 18.3355 28.6207 23.5123L25.9507 37.4479L28.2602 45.0209C38.1155 46.291 39.6094 42.0283 39.6094 42.0283C39.3921 40.29 41.1304 32.4677 43.5205 33.3368C44.1999 33.5838 43.8013 33.0378 43.0979 32.074C42.7737 31.6298 42.3848 31.0969 42.0068 30.5121C39.3921 26.8182 40.0439 23.1243 40.0439 23.1243C40.0439 23.1243 42.6514 29.6429 48.9527 29.6429C50.0409 30.051 50.7885 31.3107 51.4087 32.3557C51.7792 32.9799 52.1042 33.5276 52.4293 33.7714C53.5157 35.5097 54.1676 37.0307 53.733 38.5517C51.1256 34.4232 50.2564 36.3788 50.2564 36.3788C50.2564 36.3788 48.3008 38.769 52.212 44.4184C53.1311 46.992 51.4408 50.3976 50.3448 52.6059C50.1453 53.0079 49.9655 53.3702 49.8247 53.6806C49.7765 53.7867 49.7316 53.8883 49.6862 53.9908C49.5989 54.1882 49.5101 54.3889 49.3945 54.6309C49.3843 54.6522 49.3741 54.6736 49.3637 54.6949L49.3645 54.7071C49.3579 54.716 49.3513 54.725 49.3447 54.734C45.7771 62.0204 33.5269 68.0891 33.5269 68.0891C33.5269 68.0891 33.4837 68.0913 33.4025 68.0913C32.6823 68.092 28.7752 67.9171 25.4784 64.1993C29.9285 62.7464 33.1433 61.2642 35.8026 59.382C32.6016 60.2541 29.1996 60.8693 24.423 61.4577C20.6716 59.5527 18.7552 58.0727 15.8945 54.2012C22.251 55.7929 25.7154 56.1329 29.9576 55.2018C25.5432 54.4695 21.6908 53.3706 15.7158 51.0963C13.2895 47.6589 12.7198 45.3704 12 40.6108C16.6624 44.7969 19.2097 46.7963 23.0164 47.9901C19.7422 45.2541 17.0174 42.4106 13.138 37.6474C12.7555 33.4574 12.9892 31.0473 14.7456 26.5655C16.5961 32.2335 18.0503 35.3226 20.5913 38.1662C18.835 33.6587 17.8016 29.6901 16.7191 22.9783C18.3026 19.5487 19.508 18.5965 22.4605 16.2643C22.7965 15.9989 23.1551 15.7156 23.5395 15.4087C22.5042 20.3135 22.1897 22.9351 22.5955 25.6818C23.194 22.2957 24.1239 18.883 25.7223 14.1453Z" fill="url(#paint1_linear_348_3552)"/>
</g>
<defs>
<filter id="filter0_d_348_3552" x="14.8094" y="0.57" width="71.6127" height="88.516" filterUnits="userSpaceOnUse" color-interpolation-filters="sRGB">
<feFlood flood-opacity="0" result="BackgroundImageFix"/>
<feColorMatrix in="SourceAlpha" type="matrix" values="0 0 0 0 0 0 0 0 0 0 0 0 0 0 0 0 0 0 127 0" result="hardAlpha"/>
<feOffset dy="5.62"/>
<feGaussianBlur stdDeviation="7.025"/>
<feComposite in2="hardAlpha" operator="out"/>
<feColorMatrix type="matrix" values="0 0 0 0 0 0 0 0 0 0 0 0 0 0 0 0 0 0 0.1 0"/>
<feBlend mode="normal" in2="BackgroundImageFix" result="effect1_dropShadow_348_3552"/>
<feBlend mode="normal" in="SourceGraphic" in2="effect1_dropShadow_348_3552" result="shape"/>
</filter>
<filter id="filter1_d_348_3552" x="0.759997" y="3.98156" width="64.3491" height="80.9702" filterUnits="userSpaceOnUse" color-interpolation-filters="sRGB">
<feFlood flood-opacity="0" result="BackgroundImageFix"/>
<feColorMatrix in="SourceAlpha" type="matrix" values="0 0 0 0 0 0 0 0 0 0 0 0 0 0 0 0 0 0 127 0" result="hardAlpha"/>
<feOffset dy="5.62"/>
<feGaussianBlur stdDeviation="5.62"/>
<feComposite in2="hardAlpha" operator="out"/>
<feColorMatrix type="matrix" values="0 0 0 0 0 0 0 0 0 0 0 0 0 0 0 0 0 0 0.1 0"/>
<feBlend mode="normal" in2="BackgroundImageFix" result="effect1_dropShadow_348_3552"/>
<feBlend mode="normal" in="SourceGraphic" in2="effect1_dropShadow_348_3552" result="shape"/>
</filter>
<linearGradient id="paint0_linear_348_3552" x1="61.2368" y1="15.3444" x2="31.4197" y2="66.9892" gradientUnits="userSpaceOnUse">
<stop stop-color="#3FDCFF"/>
<stop offset="1" stop-color="#1B4DFF"/>
</linearGradient>
<linearGradient id="paint1_linear_348_3552" x1="40.4785" y1="25.2972" x2="19.8231" y2="61.6657" gradientUnits="userSpaceOnUse">
<stop stop-color="#0D4CAB"/>
<stop offset="1" stop-color="#031B6F"/>
</linearGradient>
</defs>
</svg>
